<svg aria-hidden="true" style="position: absolute; width: 0; height: 0; overflow: hidden;" version="1.1" xmlns="http://www.w3.org/2000/svg" xmlns:xlink="http://www.w3.org/1999/xlink">
<defs>
<symbol id="icon-coffee" viewBox="0 0 32 32">
<path d="M29.984 15.548c-0.378-3.639-4.063-3.618-5.977-3.553 0.009-0.553 0.015-0.999 0.015-0.999l-22.027-0.007c0 0 0 3.014 0 3.089 0 4.281 2.445 7.984 6.011 9.809v1.068h10.019v-1.068c1-0.512 1.897-1.184 2.691-1.961 4.915-1.176 10.070-2.873 9.268-6.378zM22.25 20.066c1.123-1.725 1.786-3.775 1.786-5.988 0 0.017 0.001-0.029 0.002-0.116 1.785-0.059 3.755-0.237 4.201 1.54 0.448 1.955-2.817 3.547-5.989 4.564zM8.83 6.99c0 1-1.64 2.065-1.64 2.065s3.214-0.574 3.214-2.074-3.187-0.5-3.187-1.625 1.577-2.19 1.577-2.19-3.025 0.637-3.025 2.199 3.061 0.625 3.061 1.625zM13.83 7.99c0 1-1.64 2.065-1.64 2.065s3.214-0.574 3.214-2.074-3.187-0.5-3.187-1.625 1.577-2.19 1.577-2.19-3.026 0.637-3.026 2.199 3.062 0.625 3.062 1.625zM17.83 6.99c0 1-1.64 2.065-1.64 2.065s3.214-0.574 3.214-2.074-3.187-0.5-3.187-1.625 1.577-2.19 1.577-2.19-3.026 0.637-3.026 2.199 3.062 0.625 3.062 1.625zM1.933 25.928c0 1.381 4.925 2.5 11 2.5s11-1.119 11-2.5c0 0.029-22 0.029-22 0z"></path>
</symbol>
<symbol id="icon-mug" viewBox="0 0 32 32">
<path d="M25.761 25.005h-2.724v2.164c0 1.546-1.378 2.798-2.924 2.798h-10.308c-1.546 0-2.799-1.252-2.799-2.798v-15.1h2.998v14.905h1.988l0.002-14.905c0.534 0.385 1.334 0.671 2.008 0.823v14.083h1.988v-14.025c0.745-0.123 1.428-0.403 2.016-0.807v14.832h1.988v-14.906h5.766c1.236 0 2.239 1.002 2.239 2.239v8.457c0.001 1.237-1.002 2.24-2.238 2.24zM25.991 14.010h-2.955v8.985h2.955v-8.985zM21.222 11.142c-0.979 0-1.863-0.391-2.517-1.021-0.812 1.147-2.142 1.902-3.653 1.902-1.457 0-2.738-0.707-3.557-1.784-0.648 0.599-1.508 0.973-2.46 0.973-1.755 0-3.219-1.243-3.562-2.896-0.534-0.35-0.887-0.952-0.887-1.637 0-1.082 0.877-1.959 1.959-1.959 0.080 0 0.157 0.014 0.234 0.023 0.605-0.481 1.359-0.785 2.189-0.801 0.373-1.106 1.408-1.909 2.641-1.909 0.949 0 1.784 0.475 2.291 1.197 0.368-0.1 0.751-0.162 1.151-0.162 0.418 0 0.816 0.070 1.199 0.179 0.505-0.732 1.348-1.214 2.304-1.214 1.207 0 2.226 0.768 2.619 1.838 0.017 0 0.031-0.005 0.048-0.005 2.010 0 3.639 1.629 3.639 3.638s-1.629 3.638-3.638 3.638z"></path>
</symbol>
<symbol id="icon-icecream" viewBox="0 0 32 32">
<path d="M20.804 10.742c1.448-3.62-1.789-4.217-1.789-4.174 1.022-2.556-1.022-4.26-2.896-4.26s-1.789 0.853-1.789 0.853 1.022-0.213 1.022 0.596c0 0.81-0.938 0.767-1.874 1.704-0.938 0.937-0.49 0.81-0.554 0.81 1.948-0.128 3.088 1.885 5.239 1.149-2.13 1.065-2.641-0.628-4.941-0.713-0.298 0-2.002-0.33-2.002 2.928 2.492 0.288 3.578 2.002 6.943 1.619-3.791 1.405-8.54-4.409-9.2 1.959 0 1.363 1.021 2.048 1.021 2.048s11.799 0 11.757 0c2.342-1.022 1.193-4.732-0.937-4.519zM16.072 31l5.328-15.069h-10.773l5.445 15.069z"></path>
</symbol>
<symbol id="icon-cake" viewBox="0 0 32 32">
<path d="M25.5 9c-0.295 0-0.58 0.037-0.857 0.097-0.123-1.821-1.624-3.264-3.476-3.264-0.415 0-0.808 0.085-1.177 0.218-1.15-1.828-3.172-3.051-5.49-3.051-3.522 0-6.373 2.807-6.48 6.303-0.469-0.193-0.981-0.303-1.52-0.303-2.209 0-4 1.791-4 4 0 2.152 1.703 3.894 3.833 3.982l1.604-1.604 1.622 1.622h0.758l1.621-1.622 1.621 1.622h0.758l1.621-1.622 1.621 1.622h0.758l1.621-1.622 1.621 1.622h0.758l1.621-1.622 1.616 1.616c2.183-0.029 3.946-1.803 3.946-3.994 0-2.209-1.791-4-4-4zM24 16.566l-1.434 1.434h-1.258l-1.371-1.371-1.371 1.371h-1.258l-1.371-1.371-1.371 1.371h-1.258l-1.371-1.371-1.371 1.371h-1.257l-1.371-1.371-1.372 1.371h-0.066l2.65 11h13.625l2.725-11h-0.066l-1.434-1.434zM11.5 28l-2.083-9h1l2.083 9h-1zM13.5 28l-1.062-9h1l1.062 9h-1zM16.5 28h-1v-9h1v9zM17.5 28l1.062-9h1l-1.062 9h-1zM20.5 28h-1l2.062-9h1l-2.062 9z"></path>
</symbol>
<symbol id="icon-bike" viewBox="0 0 38 32">
<path d="M29.998 28.197c-4.212 0-7.627-3.414-7.627-7.627 0-3.090 1.842-5.745 4.484-6.943l-1.014-2.283 0.165 0.399-6.944 9.321v1.869h1.017v1.018h-3.052v-1.018h1.018v-1.018l-2.877-0.27c-0.524 3.701-3.696 6.551-7.542 6.551-4.212 0.001-7.626-3.413-7.626-7.626 0-4.212 3.414-7.626 7.627-7.626 1.101 0 2.145 0.238 3.090 0.657l1.906-4.788-0.865-2.416c-0.38 0-0.734 0-1.017 0-0.954 0-0.699-1.017-0.699-1.017s0.063-0.89 0.763-0.89 0.699 0.636 1.843 0.636c1.095 0 2.669 0.317 2.669 0.317s0.699 0.953-0.635 0.953c-0.604 0-1.269 0-1.907 0l0.723 2.597h11.052l-0.868-1.973h-0.675v-1.016h4.067v1.017h-2.298l2.977 6.26c0.71-0.219 1.465-0.337 2.246-0.337 4.212 0 7.627 3.414 7.627 7.626-0.001 4.213-3.416 7.627-7.628 7.627zM7.627 13.96c-3.651 0-6.61 2.959-6.61 6.61s2.959 6.609 6.61 6.609c3.319 0 6.060-2.449 6.53-5.639l-5.294-0.545c-0.084 0.477-0.481 0.846-0.982 0.846-0.562 0-1.017-0.455-1.017-1.018 0-0.561 0.455-1.018 1.017-1.018 0.12 0 0.232 0.031 0.339 0.070l2.121-5.33c-0.829-0.372-1.746-0.585-2.714-0.585zM9.152 20.125l5.079 0.537c0.001-0.031 0.005-0.061 0.005-0.092 0-2.35-1.229-4.408-3.077-5.581l-2.007 5.136zM13.077 10.082l-1.543 3.948c2.225 1.332 3.719 3.759 3.719 6.541 0 0.066-0.008 0.133-0.010 0.199l1.726 0.182-3.892-10.87zM24.978 9.396v0.614h-11.12l4.050 10.839 7.687-10.065-0.617-1.388zM29.998 13.96c-0.637 0-1.251 0.095-1.834 0.264l2.374 5.424c0.482 0.078 0.858 0.48 0.858 0.984 0 0.562-0.455 1.018-1.017 1.018s-1.018-0.455-1.018-1.018c0-0.273 0.111-0.521 0.289-0.705l-2.384-5.372c-2.287 1.040-3.879 3.338-3.879 6.014 0 3.65 2.959 6.609 6.609 6.609s6.609-2.959 6.609-6.609-2.957-6.609-6.607-6.609z"></path>
</symbol>
<symbol id="icon-bike1" viewBox="0 0 32 32">
<path d="M24 9h-4v-2h4c0.552 0 1 0.447 1 1 0 0.552-0.448 1-1 1zM21 0c0-1.657-1.343-3-3-3h-5c-1.657 0-3 1.343-3 3v6h-1v-6c0-2.209 1.791-4 4-4h5c2.209 0 4 1.791 4 4v6h-1v-6zM11 9h-4c-0.553 0-1-0.448-1-1 0-0.553 0.447-1 1-1h4v2zM15.5 11.5c-1.934 0-3.5-1.567-3.5-3.5 0-1.934 1.566-3.5 3.5-3.5s3.5 1.566 3.5 3.5c0 1.933-1.567 3.5-3.5 3.5zM15.5 6c-1.104 0-2 0.896-2 2s0.896 2 2 2 2-0.896 2-2-0.896-2-2-2zM12.112 10.106c0.706 1.133 1.954 1.894 3.388 1.894s2.681-0.761 3.388-1.894c1.78 0.405 3.112 1.991 3.112 3.894v10c0 1.861-1.278 3.412-3 3.858v-5.421c0-1.933-1.567-3.5-3.5-3.5s-3.5 1.567-3.5 3.5v5.421c-1.723-0.446-3-1.997-3-3.858v-10c0-1.903 1.332-3.489 3.112-3.894zM15.5 20c1.381 0 2.5 1.119 2.5 2.5v7c0 1.381-1.119 2.5-2.5 2.5s-2.5-1.119-2.5-2.5v-7c0-1.381 1.119-2.5 2.5-2.5z"></path>
</symbol>
<symbol id="icon-compass" viewBox="0 0 32 32">
<path d="M29 18.5c0 7.18-5.82 13-13 13s-13-5.82-13-13c0-6.33 4.525-11.597 10.515-12.757-0.325-0.479-0.515-1.057-0.515-1.681 0-1.657 1.343-3 3-3 1.656 0 3 1.343 3 3 0 0.623-0.19 1.201-0.516 1.681 5.991 1.16 10.516 6.427 10.516 12.757zM16 2.5c-0.829 0-1.5 0.672-1.5 1.5s0.671 1.5 1.5 1.5c0.828 0 1.5-0.672 1.5-1.5s-0.672-1.5-1.5-1.5zM17 7.55v2.45h-2v-2.45c-5.421 0.489-9.695 5.034-9.974 10.513h2.974v1.937h-2.896c0.663 5.067 4.767 8.986 9.896 9.449v-2.449h2v2.449c5.107-0.461 9.197-4.412 9.886-9.449h-2.886v-2h2.976c-0.248-5.508-4.536-9.959-9.976-10.45zM9.513 25.162l3.918-8.868 8.81-3.859-3.845 8.794-8.883 3.933zM17.32 17.354c-0.781-0.781-2.048-0.781-2.829 0s-0.781 2.047 0 2.828 2.048 0.781 2.829 0c0.781-0.781 0.781-2.046 0-2.828z"></path>
</symbol>
<symbol id="icon-mail-envelope" viewBox="0 0 32 32">
<path d="M6.004 8h20.993c1.114 0 2.004 0.893 2.004 1.994v12.012c0 1.1-0.897 1.994-2.004 1.994h-20.993c-1.114 0-2.004-0.893-2.004-1.994v-12.012c0-1.1 0.897-1.994 2.004-1.994zM6.003 9c-0.554 0-1.003 0.45-1.003 1.007v11.986c0 0.556 0.439 1.007 1.003 1.007h20.994c0.554 0 1.003-0.45 1.003-1.007v-11.986c0-0.556-0.439-1.007-1.003-1.007h-20.994zM23 11h3v3h-3v-3zM24 12v1h1v-1h-1zM7 18v1h8v-1h-8zM7 11v1h4v-1h-4zM7 20v1h8v-1h-8z"></path>
</symbol>
<symbol id="icon-mail-envelope1" viewBox="0 0 32 32">
<path d="M6.004 8h20.993c1.114 0 2.004 0.893 2.004 1.994v12.012c0 1.1-0.897 1.994-2.004 1.994h-20.993c-1.114 0-2.004-0.893-2.004-1.994v-12.012c0-1.1 0.897-1.994 2.004-1.994zM7 11v1h4v-1h-4zM23 11v3h3v-3h-3zM24 12v1h1v-1h-1zM7 18v1h8v-1h-8zM7 20v1h8v-1h-8z"></path>
</symbol>
<symbol id="icon-tag" viewBox="0 0 32 32">
<path d="M14 4l13.381 13.381c0.783 0.783 0.787 2.051 0.008 2.831l-7.177 7.177c-0.778 0.778-2.047 0.776-2.831-0.008l-13.381-13.381v-8c0-1.112 0.895-2 2-2h8zM9.5 11c0.828 0 1.5-0.672 1.5-1.5s-0.672-1.5-1.5-1.5c-0.828 0-1.5 0.672-1.5 1.5s0.672 1.5 1.5 1.5v0z"></path>
</symbol>
<symbol id="icon-trophy" viewBox="0 0 32 32">
<path d="M21 25h3v4h-15v-4h3v-3h4v-4c-3.309-0.003-6-2.685-6-5.993v-0.007c-3.5-1.5-4-9-4-9h21c0 0-0.5 7.5-4 9v0.007c0 3.31-2.686 5.99-6 5.993v4h4v3zM11 4v7.992c0 2.766 2.239 5.008 5.001 5.008h0.998c2.762 0 5.001-2.235 5.001-5.008v-7.992h-11zM10 4h-2.9c0 0 0.554 5.221 2.9 6.9v-6.9zM22.982 4v6.88c2.346-1.679 2.9-6.88 2.9-6.88h-2.9zM13 23v2h7v-2h-7zM10 26v2h13v-2h-13z"></path>
</symbol>
<symbol id="icon-trophy1" viewBox="0 0 32 32">
<path d="M21 25v-3h-4v-4c3.314-0.003 6-2.683 6-5.993v-0.007c3.5-1.5 4-9 4-9h-21c0 0 0.5 7.5 4 9v0.007c0 3.308 2.691 5.99 6 5.993v4h-4v3h-3v4h15v-4h-3zM10 4v6.9c-2.346-1.679-2.9-6.9-2.9-6.9h2.9zM22.982 4h2.9c0 0-0.555 5.201-2.9 6.88v-6.88z"></path>
</symbol>
<symbol id="icon-stop-watch" viewBox="0 0 32 32">
<path d="M7.729 11.022c1.53-1.403 3.44-2.397 5.559-2.81-0.786-0.642-1.288-1.619-1.288-2.713 0-1.933 1.567-3.5 3.5-3.5s3.5 1.567 3.5 3.5c0 1.094-0.502 2.071-1.288 2.713v0c2.118 0.413 4.029 1.407 5.559 2.81v0l1.229-1.229-0.707-0.707 0.707-0.707 2.121 2.121-0.707 0.707-0.707-0.707-1.229 1.229c1.877 2.047 3.022 4.775 3.022 7.771 0 6.351-5.149 11.5-11.5 11.5s-11.5-5.149-11.5-11.5c0-2.996 1.146-5.724 3.022-7.771l-1.229-1.229-0.707 0.707-0.707-0.707 2.121-2.121 0.707 0.707-0.707 0.707 1.229 1.229zM16.147 18.146l3.119-3.119c0.191-0.191 0.514-0.198 0.71-0.002 0.19 0.19 0.194 0.513-0.002 0.71l-3.119 3.119c0.094 0.196 0.146 0.415 0.146 0.647 0 0.828-0.672 1.5-1.5 1.5-0.232 0-0.451-0.052-0.647-0.146l-1.119 1.119c-0.191 0.191-0.514 0.198-0.71 0.002-0.19-0.19-0.194-0.513 0.002-0.71l1.119-1.119c-0.094-0.196-0.146-0.415-0.146-0.647 0-0.828 0.672-1.5 1.5-1.5 0.232 0 0.451 0.052 0.647 0.146v0 0zM16 7.95c1.141-0.232 2-1.24 2-2.45 0-1.381-1.119-2.5-2.5-2.5s-2.5 1.119-2.5 2.5c0 1.209 0.859 2.218 2 2.45v-1.95h-1v-1h3v1h-1v1.95zM8.016 19.998h2.496c0.271 0 0.49-0.232 0.49-0.5 0-0.276-0.215-0.5-0.49-0.5h-2.495c0.247-3.743 3.24-6.735 6.983-6.981v2.493c0 0.271 0.232 0.49 0.5 0.49 0.276 0 0.5-0.215 0.5-0.49v-2.493c3.743 0.246 6.736 3.239 6.983 6.981h-2.495c-0.271 0-0.49 0.232-0.49 0.5 0 0.276 0.215 0.5 0.49 0.5h2.496c-0.245 3.745-3.239 6.739-6.984 6.986v-2.498c0-0.271-0.232-0.49-0.5-0.49-0.276 0-0.5 0.215-0.5 0.49v2.498c-3.745-0.246-6.738-3.241-6.984-6.986zM15.5 30c5.799 0 10.5-4.701 10.5-10.5s-4.701-10.5-10.5-10.5c-5.799 0-10.5 4.701-10.5 10.5s4.701 10.5 10.5 10.5v0zM15.5 28c4.694 0 8.5-3.806 8.5-8.5s-3.806-8.5-8.5-8.5c-4.694 0-8.5 3.806-8.5 8.5s3.806 8.5 8.5 8.5v0zM15.5 20c0.276 0 0.5-0.224 0.5-0.5s-0.224-0.5-0.5-0.5c-0.276 0-0.5 0.224-0.5 0.5s0.224 0.5 0.5 0.5v0z"></path>
</symbol>
<symbol id="icon-stop-watch1" viewBox="0 0 32 32">
<path d="M16.147 18.146l3.119-3.119c0.191-0.191 0.514-0.198 0.71-0.002 0.19 0.19 0.194 0.513-0.002 0.71l-3.119 3.119c0.094 0.196 0.146 0.415 0.146 0.647 0 0.828-0.672 1.5-1.5 1.5-0.232 0-0.451-0.052-0.647-0.146l-1.119 1.119c-0.191 0.191-0.514 0.198-0.71 0.002-0.19-0.19-0.194-0.513 0.002-0.71l1.119-1.119c-0.094-0.196-0.146-0.415-0.146-0.647 0-0.828 0.672-1.5 1.5-1.5 0.232 0 0.451 0.052 0.647 0.146v0 0zM23.978 11.729c1.877 2.047 3.022 4.775 3.022 7.771 0 6.351-5.149 11.5-11.5 11.5s-11.5-5.149-11.5-11.5c0-2.996 1.146-5.724 3.022-7.771l-1.229-1.229-0.707 0.707-0.707-0.707 2.121-2.121 0.707 0.707-0.707 0.707 1.229 1.229c1.53-1.403 3.44-2.397 5.559-2.81v0c-0.786-0.642-1.288-1.619-1.288-2.713 0-1.933 1.567-3.5 3.5-3.5s3.5 1.567 3.5 3.5c0 1.094-0.502 2.071-1.288 2.713 2.118 0.413 4.029 1.407 5.559 2.81l1.229-1.229-0.707-0.707 0.707-0.707 2.121 2.121-0.707 0.707-0.707-0.707-1.229 1.229zM16 7.95c1.141-0.232 2-1.24 2-2.45 0-1.381-1.119-2.5-2.5-2.5s-2.5 1.119-2.5 2.5c0 1.209 0.859 2.218 2 2.45v-1.95h-1v-1h3v1h-1v1.95zM8.016 19.998c0.245 3.745 3.239 6.739 6.984 6.986v0-2.498c0-0.275 0.224-0.49 0.5-0.49 0.268 0 0.5 0.22 0.5 0.49v2.498c3.744-0.246 6.738-3.241 6.984-6.986h-2.496c-0.275 0-0.49-0.224-0.49-0.5 0-0.268 0.22-0.5 0.49-0.5h2.495c-0.247-3.743-3.24-6.735-6.983-6.981v0 2.493c0 0.275-0.224 0.49-0.5 0.49-0.268 0-0.5-0.22-0.5-0.49v-2.493c-3.743 0.246-6.736 3.239-6.983 6.981h2.495c0.275 0 0.49 0.224 0.49 0.5 0 0.268-0.22 0.5-0.49 0.5h-2.496zM15.5 28c4.694 0 8.5-3.806 8.5-8.5s-3.806-8.5-8.5-8.5c-4.694 0-8.5 3.806-8.5 8.5s3.806 8.5 8.5 8.5v0zM15.5 20c0.276 0 0.5-0.224 0.5-0.5s-0.224-0.5-0.5-0.5c-0.276 0-0.5 0.224-0.5 0.5s0.224 0.5 0.5 0.5v0z"></path>
</symbol>
<symbol id="icon-stop-watch2" viewBox="0 0 32 32">
<path d="M15 16.085v-5.584c0-0.271 0.224-0.501 0.5-0.501 0.268 0 0.5 0.224 0.5 0.501v5.584c0.583 0.206 1 0.762 1 1.415s-0.417 1.209-1 1.415v1.584c0 0.271-0.224 0.501-0.5 0.501-0.268 0-0.5-0.224-0.5-0.501v-1.584c-0.583-0.206-1-0.762-1-1.415s0.417-1.209 1-1.415v0 0zM23.271 9.022l1.229-1.229-0.707-0.707 0.707-0.707 2.121 2.121-0.707 0.707-0.707-0.707-1.229 1.229c1.877 2.047 3.022 4.775 3.022 7.771 0 6.351-5.149 11.5-11.5 11.5s-11.5-5.149-11.5-11.5c0-6.184 4.881-11.228 11-11.489v-2.011h-1v-1h3v1h-1v2.011c2.799 0.12 5.338 1.24 7.271 3.012zM15.5 28c5.799 0 10.5-4.701 10.5-10.5s-4.701-10.5-10.5-10.5c-5.799 0-10.5 4.701-10.5 10.5s4.701 10.5 10.5 10.5v0zM15.5 18c0.276 0 0.5-0.224 0.5-0.5s-0.224-0.5-0.5-0.5c-0.276 0-0.5 0.224-0.5 0.5s0.224 0.5 0.5 0.5v0z"></path>
</symbol>
<symbol id="icon-stop-watch3" viewBox="0 0 32 32">
<path d="M15 16.085v-5.584c0-0.271 0.224-0.501 0.5-0.501 0.268 0 0.5 0.224 0.5 0.501v5.584c0.583 0.206 1 0.762 1 1.415s-0.417 1.209-1 1.415v1.584c0 0.271-0.224 0.501-0.5 0.501-0.268 0-0.5-0.224-0.5-0.501v-1.584c-0.583-0.206-1-0.762-1-1.415s0.417-1.209 1-1.415v0 0zM23.271 9.022c-1.932-1.772-4.472-2.892-7.271-3.012v0-2.011h1v-1h-3v1h1v2.011c-6.119 0.262-11 5.306-11 11.489 0 6.351 5.149 11.5 11.5 11.5s11.5-5.149 11.5-11.5c0-2.996-1.145-5.724-3.022-7.771l1.229-1.229 0.707 0.707 0.707-0.707-2.121-2.121-0.707 0.707 0.707 0.707-1.229 1.229zM15.5 18c0.276 0 0.5-0.224 0.5-0.5s-0.224-0.5-0.5-0.5c-0.276 0-0.5 0.224-0.5 0.5s0.224 0.5 0.5 0.5v0z"></path>
</symbol>
<symbol id="icon-award" viewBox="0 0 32 32">
<path d="M10 16.708v0 0c-1.841-1.648-3-4.043-3-6.708 0-4.971 4.029-9 9-9s9 4.029 9 9c0 2.665-1.159 5.060-3 6.708v14.292l-6-6-6 6v-14.292zM11 17.484v11.116l5-5 5 5v-11.116c-1.43 0.957-3.15 1.516-5 1.516s-3.57-0.558-5-1.516v0 0zM16 18c4.418 0 8-3.582 8-8s-3.582-8-8-8c-4.418 0-8 3.582-8 8s3.582 8 8 8v0zM16 12.692l-3.5 2.308 1.5-4-3-2h3.5l1.5-4 1.5 4h3.5l-3 2 1.5 4-3.5-2.308z"></path>
</symbol>
<symbol id="icon-award1" viewBox="0 0 32 32">
<path d="M10 18.001v12.999l6-6 6 6v-12.999c-1.671 1.255-3.749 1.999-6 1.999s-4.329-0.744-6-1.999v0 0zM16 19c4.971 0 9-4.029 9-9s-4.029-9-9-9c-4.971 0-9 4.029-9 9s4.029 9 9 9v0zM16 12.692l-3.5 2.308 1.5-4-3-2h3.5l1.5-4 1.5 4h3.5l-3 2 1.5 4-3.5-2.308z"></path>
</symbol>
<symbol id="icon-award2" viewBox="0 0 32 32">
<path d="M16.007 20l-4.406 11.477-1.726-3.876-3.876 1.726 4.353-11.34c-2.030-1.65-3.327-4.167-3.327-6.987 0-4.971 4.029-9 9-9s9 4.029 9 9c0 2.82-1.297 5.337-3.327 6.987l4.353 11.34-3.876-1.726-1.726 3.876-4.406-11.477c-0.006 0-0.013 0-0.019 0s-0.013 0-0.019-0v0 0zM14.96 19.938v0 0c-1.375-0.162-2.655-0.634-3.768-1.345l-3.398 8.852 2.584-1.15 1.15 2.584 3.432-8.941zM20.86 18.593v0 0c-1.113 0.71-2.393 1.183-3.768 1.345l3.432 8.941 1.15-2.584 2.584 1.15-3.398-8.852zM16.026 19c4.418 0 8-3.582 8-8s-3.582-8-8-8c-4.418 0-8 3.582-8 8s3.582 8 8 8v0zM16.026 13.692l-3.5 2.308 1.5-4-3-2h3.5l1.5-4 1.5 4h3.5l-3 2 1.5 4-3.5-2.308z"></path>
</symbol>
<symbol id="icon-award3" viewBox="0 0 32 32">
<path d="M15.626 20.992l-4.025 10.485-1.726-3.876-3.876 1.726 3.978-10.363c1.581 1.202 3.53 1.945 5.648 2.028v0zM22.074 18.964l3.978 10.363-3.876-1.726-1.726 3.876-4.025-10.485c2.119-0.083 4.068-0.826 5.648-2.028v0 0zM16.026 20c4.971 0 9-4.029 9-9s-4.029-9-9-9c-4.971 0-9 4.029-9 9s4.029 9 9 9v0zM16.026 13.692l-3.5 2.308 1.5-4-3-2h3.5l1.5-4 1.5 4h3.5l-3 2 1.5 4-3.5-2.308z"></path>
</symbol>
<symbol id="icon-winking-face" viewBox="0 0 32 32">
<path d="M16.5 29v0c-6.904 0-12.5-5.596-12.5-12.5s5.596-12.5 12.5-12.5c6.904 0 12.5 5.596 12.5 12.5s-5.596 12.5-12.5 12.5zM16.5 28c6.351 0 11.5-5.149 11.5-11.5s-5.149-11.5-11.5-11.5c-6.351 0-11.5 5.149-11.5 11.5s5.149 11.5 11.5 11.5v0zM21 14c0.552 0 1-0.448 1-1s-0.448-1-1-1c-0.552 0-1 0.448-1 1s0.448 1 1 1v0zM11 13v1h4v-1h-4zM16.497 21c-2.997 0-4.497-1-4.497-1s1 3 4.5 3c3.5 0 4.5-3 4.5-3s-1.506 1-4.503 1v0z"></path>
</symbol>
<symbol id="icon-grinning-face" viewBox="0 0 32 32">
<path d="M16.5 29v0c-6.904 0-12.5-5.596-12.5-12.5s5.596-12.5 12.5-12.5c6.904 0 12.5 5.596 12.5 12.5s-5.596 12.5-12.5 12.5zM16.5 28c6.351 0 11.5-5.149 11.5-11.5s-5.149-11.5-11.5-11.5c-6.351 0-11.5 5.149-11.5 11.5s5.149 11.5 11.5 11.5v0zM12 14c0.552 0 1-0.448 1-1s-0.448-1-1-1c-0.552 0-1 0.448-1 1s0.448 1 1 1v0zM21 14c0.552 0 1-0.448 1-1s-0.448-1-1-1c-0.552 0-1 0.448-1 1s0.448 1 1 1v0zM16.497 21c-2.997 0-4.497-1-4.497-1s1 3 4.5 3c3.5 0 4.5-3 4.5-3s-1.506 1-4.503 1v0z"></path>
</symbol>
<symbol id="icon-sad-face" viewBox="0 0 32 32">
<path d="M16.5 29v0c-6.904 0-12.5-5.596-12.5-12.5s5.596-12.5 12.5-12.5c6.904 0 12.5 5.596 12.5 12.5s-5.596 12.5-12.5 12.5zM16.5 28c6.351 0 11.5-5.149 11.5-11.5s-5.149-11.5-11.5-11.5c-6.351 0-11.5 5.149-11.5 11.5s5.149 11.5 11.5 11.5v0zM12 14c0.552 0 1-0.448 1-1s-0.448-1-1-1c-0.552 0-1 0.448-1 1s0.448 1 1 1v0zM21 14c0.552 0 1-0.448 1-1s-0.448-1-1-1c-0.552 0-1 0.448-1 1s0.448 1 1 1v0zM16.497 22c-2.997 0-4.497 1-4.497 1s1-3 4.5-3c3.5 0 4.5 3 4.5 3s-1.506-1-4.503-1v0z"></path>
</symbol>
<symbol id="icon-heart" viewBox="0 0 32 32">
<path d="M29.193 5.265c-3.629-3.596-9.432-3.671-13.191-0.288-3.76-3.383-9.561-3.308-13.192 0.288-3.741 3.704-3.741 9.709 0 13.415 1.069 1.059 11.053 10.941 11.053 10.941 1.183 1.172 3.096 1.172 4.278 0 0 0 10.932-10.822 11.053-10.941 3.742-3.706 3.742-9.711-0.001-13.415zM27.768 17.268l-11.053 10.941c-0.393 0.391-1.034 0.391-1.425 0l-11.053-10.941c-2.95-2.92-2.95-7.671 0-10.591 2.844-2.815 7.416-2.914 10.409-0.222l1.356 1.22 1.355-1.22c2.994-2.692 7.566-2.594 10.41 0.222 2.95 2.919 2.95 7.67 0.001 10.591zM9.253 7.501c0.277 0 0.5 0.224 0.5 0.5s-0.224 0.5-0.5 0.5h-0.001c-1.794 0-3.249 1.455-3.249 3.249v0.001c0 0.276-0.224 0.5-0.5 0.5s-0.5-0.224-0.5-0.5v0c0-2.346 1.901-4.247 4.246-4.249 0.002 0 0.002-0.001 0.004-0.001z"></path>
</symbol>
<symbol id="icon-star" viewBox="0 0 32 32">
<path d="M31.881 12.557c-0.277-0.799-0.988-1.384-1.844-1.511l-8.326-1.238-3.619-7.514c-0.381-0.789-1.196-1.294-2.092-1.294s-1.711 0.505-2.092 1.294l-3.619 7.514-8.327 1.238c-0.855 0.127-1.566 0.712-1.842 1.511-0.275 0.801-0.067 1.683 0.537 2.285l6.102 6.092-1.415 8.451c-0.144 0.851 0.225 1.705 0.948 2.203 0.397 0.273 0.864 0.412 1.331 0.412 0.384 0 0.769-0.094 1.118-0.281l7.259-3.908 7.26 3.908c0.349 0.187 0.734 0.281 1.117 0.281 0.467 0 0.934-0.139 1.332-0.412 0.723-0.498 1.090-1.352 0.947-2.203l-1.416-8.451 6.104-6.092c0.603-0.603 0.81-1.485 0.537-2.285zM23.588 19.363c-0.512 0.51-0.744 1.229-0.627 1.934l1.416 8.451-7.26-3.906c-0.348-0.188-0.732-0.281-1.118-0.281-0.384 0-0.769 0.094-1.117 0.281l-7.26 3.906 1.416-8.451c0.118-0.705-0.114-1.424-0.626-1.934l-6.102-6.092 8.326-1.24c0.761-0.113 1.416-0.589 1.743-1.268l3.621-7.512 3.62 7.513c0.328 0.679 0.982 1.154 1.742 1.268l8.328 1.24-6.102 6.091z"></path>
</symbol>
<symbol id="icon-search" viewBox="0 0 32 32">
<path d="M20 0.005c-6.627 0-12 5.373-12 12 0 2.026 0.507 3.933 1.395 5.608l-8.344 8.342 0.007 0.006c-0.652 0.641-1.058 1.529-1.058 2.516 0 1.949 1.58 3.529 3.529 3.529 0.985 0 1.874-0.406 2.515-1.059l-0.002-0.002 8.341-8.34c1.676 0.891 3.586 1.4 5.617 1.4 6.627 0 12-5.373 12-12s-5.373-12-12-12zM4.795 29.697c-0.322 0.334-0.768 0.543-1.266 0.543-0.975 0-1.765-0.789-1.765-1.764 0-0.498 0.21-0.943 0.543-1.266l-0.009-0.008 8.066-8.066c0.705 0.951 1.545 1.791 2.494 2.498l-8.063 8.063zM20 22.006c-5.522 0-10-4.479-10-10s4.478-10 10-10c5.521 0 10 4.478 10 10s-4.479 10-10 10zM20 5.005c0.275 0 0.5 0.224 0.5 0.5s-0.225 0.5-0.5 0.5c-3.314 0-6 2.687-6 6 0 0.276-0.224 0.5-0.5 0.5s-0.5-0.224-0.5-0.5c0-3.866 3.133-7 7-7z"></path>
</symbol>
<symbol id="icon-tag1" viewBox="0 0 32 32">
<path d="M31.391 13.883l-5-8c-0.73-1.169-2.012-1.88-3.391-1.88h-19c-2.209 0-4 1.791-4 4v16c0 2.209 1.791 4 4 4h19c1.379 0 2.66-0.711 3.391-1.881l5-8c0.812-1.295 0.812-2.942 0-4.239zM29.695 17.062l-5 8.002c-0.367 0.588-1.002 0.939-1.695 0.939h-19c-1.103 0-2-0.898-2-2v-16c0-1.103 0.897-2 2-2h19c0.693 0 1.328 0.352 1.695 0.939l5 8c0.403 0.645 0.403 1.477 0 2.12zM23 13.003c-1.658 0-3 1.343-3 3s1.342 3 3 3c1.656 0 3-1.344 3-3 0-1.657-1.344-3-3-3zM23 18.004c-1.105 0-2-0.896-2-2s0.895-2 2-2c1.104 0 2 0.896 2 2s-0.896 2-2 2z"></path>
</symbol>
<symbol id="icon-location" viewBox="0 0 32 32">
<path d="M16.002 17.746c3.309 0 6-2.692 6-6s-2.691-6-6-6c-3.309 0-6 2.691-6 6s2.691 6 6 6zM16.002 6.746c2.758 0 5 2.242 5 5s-2.242 5-5 5c-2.758 0-5-2.242-5-5s2.242-5 5-5zM16 0c-6.618 0-12 5.316-12 12.001 0 7 6.001 14.161 10.376 19.194 0.016 0.020 0.718 0.805 1.586 0.805 0.002 0 0.073 0 0.077 0 0.867 0 1.57-0.785 1.586-0.805 4.377-5.033 10.377-12.193 10.377-19.194 0-6.685-5.383-12.001-12.002-12.001zM16.117 29.883c-0.021 0.020-0.082 0.064-0.135 0.098-0.010-0.027-0.084-0.086-0.129-0.133-3.665-4.217-9.853-11.334-9.853-17.847 0-5.514 4.487-10.001 10-10.001 5.516 0 10.002 4.487 10.002 10.002 0 6.512-6.188 13.629-9.885 17.881z"></path>
</symbol>
<symbol id="icon-bubble" viewBox="0 0 32 32">
<path d="M16 7c0.276 0 0.5 0.224 0.5 0.5s-0.225 0.5-0.5 0.5c-5.327 0-10 2.804-10 6 0 0.276-0.224 0.5-0.5 0.5s-0.5-0.224-0.5-0.5c0-3.794 5.037-7 11-7zM16 2c-8.837 0-16 5.373-16 12 0 4.127 2.779 7.766 7.008 9.926 0 0.027-0.008 0.045-0.008 0.074 0 1.793-1.339 3.723-1.928 4.736 0.001 0 0.002 0 0.002 0-0.047 0.11-0.074 0.231-0.074 0.358 0 0.5 0.405 0.906 0.906 0.906 0.094 0 0.259-0.025 0.255-0.014 3.125-0.512 6.069-3.383 6.753-4.215 0.999 0.147 2.029 0.229 3.086 0.229 8.835 0 16-5.373 16-12s-7.164-12-16-12zM16 24c-0.917 0-1.858-0.070-2.796-0.207-0.097-0.016-0.194-0.021-0.29-0.021-0.594 0-1.163 0.264-1.546 0.73-0.428 0.521-1.646 1.684-3.085 2.539 0.39-0.895 0.695-1.898 0.716-2.932 0.006-0.064 0.009-0.129 0.009-0.184 0-0.752-0.421-1.439-1.090-1.781-3.706-1.892-5.918-4.937-5.918-8.144 0-5.514 6.28-10 14-10 7.718 0 14 4.486 14 10s-6.281 10-14 10z"></path>
</symbol>
<symbol id="icon-cup" viewBox="0 0 32 32">
<path d="M28.111 5.022l-1.215-3.655c-0.271-0.817-1.035-1.367-1.896-1.367h-18c-0.862 0-1.625 0.55-1.898 1.367l-1.225 3.657c-1.044 0.067-1.877 0.915-1.877 1.976v3c0 1.104 0.896 2 2 2h1.034c0 0.075-0.030 0.146-0.021 0.221l2 18c0.112 1.011 0.967 1.779 1.987 1.779h14c1.020 0 1.875-0.768 1.986-1.779l2-18c0.010-0.075-0.021-0.146-0.021-0.221h1.035c1.104 0 2-0.896 2-2v-3c0-1.065-0.84-1.917-1.889-1.978zM7 2h18l1 3h-20l1-3zM9 30l-0.333-3h14.666l-0.333 3h-14zM23.443 26h-14.888l-1.111-10h17.111l-1.112 10zM24.666 15h-17.333l-0.333-3h18l-0.334 3zM28 10h-24v-3h24v3z"></path>
</symbol>
<symbol id="icon-phone" viewBox="0 0 32 32">
<path d="M24 0h-16c-1.658 0-3 1.343-3 3v26c0 1.658 1.343 3 3 3h16c1.656 0 3-1.344 3-3v-26c0-1.658-1.344-3-3-3zM25 29c0 0.551-0.449 1-1 1h-16c-0.552 0-1-0.447-1-1v-2.004h18v2.004zM25 25.996h-18v-19.996h18v19.996zM25 5h-18v-2c0-0.552 0.448-1 1-1h16c0.551 0 1 0.448 1 1v2zM18 3.5c0 0.276-0.225 0.5-0.5 0.5h-3c-0.277 0-0.5-0.224-0.5-0.5v0c0-0.277 0.223-0.5 0.5-0.5h3c0.275 0 0.5 0.223 0.5 0.5v0zM17 28.496c0 0.275-0.225 0.5-0.5 0.5h-1c-0.276 0-0.5-0.225-0.5-0.5v0c0-0.277 0.224-0.5 0.5-0.5h1c0.275 0 0.5 0.223 0.5 0.5v0z"></path>
</symbol>
<symbol id="icon-mail" viewBox="0 0 32 32">
<path d="M28 5h-24c-2.209 0-4 1.792-4 4v13c0 2.209 1.791 4 4 4h24c2.209 0 4-1.791 4-4v-13c0-2.208-1.791-4-4-4zM2 10.25l6.999 5.25-6.999 5.25v-10.5zM30 22c0 1.104-0.898 2-2 2h-24c-1.103 0-2-0.896-2-2l7.832-5.875 4.368 3.277c0.533 0.398 1.166 0.6 1.8 0.6 0.633 0 1.266-0.201 1.799-0.6l4.369-3.277 7.832 5.875zM30 20.75l-7-5.25 7-5.25v10.5zM17.199 18.602c-0.349 0.262-0.763 0.4-1.199 0.4s-0.851-0.139-1.2-0.4l-12.8-9.602c0-1.103 0.897-2 2-2h24c1.102 0 2 0.897 2 2l-12.801 9.602z"></path>
</symbol>
<symbol id="icon-like" viewBox="0 0 32 32">
<path d="M29.164 10.472c-1.25-0.328-4.189-0.324-8.488-0.438 0.203-0.938 0.25-1.784 0.25-3.286 0-3.588-2.614-6.748-4.926-6.748-1.633 0-2.979 1.335-3 2.977-0.022 2.014-0.645 5.492-4 7.256-0.246 0.13-0.95 0.477-1.053 0.522l0.053 0.045c-0.525-0.453-1.253-0.8-2-0.8h-3c-1.654 0-3 1.346-3 3v16c0 1.654 1.346 3 3 3h3c1.19 0 2.186-0.719 2.668-1.727 0.012 0.004 0.033 0.010 0.047 0.012 0.066 0.018 0.144 0.037 0.239 0.062 0.018 0.005 0.027 0.007 0.046 0.012 0.576 0.143 1.685 0.408 4.055 0.953 0.508 0.116 3.192 0.688 5.972 0.688h5.467c1.666 0 2.867-0.641 3.582-1.928 0.010-0.020 0.24-0.469 0.428-1.076 0.141-0.457 0.193-1.104 0.023-1.76 1.074-0.738 1.42-1.854 1.645-2.58 0.377-1.191 0.264-2.086 0.002-2.727 0.604-0.57 1.119-1.439 1.336-2.766 0.135-0.822-0.010-1.668-0.389-2.372 0.566-0.636 0.824-1.436 0.854-2.176l0.012-0.209c0.007-0.131 0.013-0.212 0.013-0.5 0-1.263-0.875-2.874-2.836-3.434zM7 29c0 0.553-0.447 1-1 1h-3c-0.553 0-1-0.447-1-1v-16c0-0.553 0.447-1 1-1h3c0.553 0 1 0.447 1 1v16zM29.977 14.535c-0.020 0.494-0.227 1.465-1.977 1.465-1.5 0-2 0-2 0-0.277 0-0.5 0.224-0.5 0.5s0.223 0.5 0.5 0.5c0 0 0.438 0 1.938 0s1.697 1.244 1.6 1.844c-0.124 0.746-0.474 2.156-2.163 2.156-1.687 0-2.375 0-2.375 0-0.277 0-0.5 0.223-0.5 0.5 0 0.275 0.223 0.5 0.5 0.5 0 0 1.188 0 1.969 0 1.688 0 1.539 1.287 1.297 2.055-0.319 1.009-0.514 1.945-2.641 1.945-0.719 0-1.631 0-1.631 0-0.277 0-0.5 0.223-0.5 0.5 0 0.275 0.223 0.5 0.5 0.5 0 0 0.693 0 1.568 0 1.094 0 1.145 1.035 1.031 1.406-0.125 0.406-0.273 0.707-0.279 0.721-0.302 0.545-0.789 0.873-1.82 0.873h-5.467c-2.746 0-5.47-0.623-5.54-0.639-4.154-0.957-4.373-1.031-4.634-1.105 0 0-0.846-0.143-0.846-0.881l-0.007-13.812c0-0.469 0.299-0.893 0.794-1.042 0.062-0.024 0.146-0.050 0.206-0.075 4.568-1.892 5.959-6.040 6-9.446 0.006-0.479 0.375-1 1-1 1.057 0 2.926 2.122 2.926 4.748 0 2.371-0.096 2.781-0.926 5.252 10 0 9.93 0.144 10.812 0.375 1.094 0.313 1.188 1.219 1.188 1.531 0 0.343-0.010 0.293-0.023 0.629zM4.5 26c-0.828 0-1.5 0.672-1.5 1.5s0.672 1.5 1.5 1.5 1.5-0.672 1.5-1.5-0.672-1.5-1.5-1.5zM4.5 28c-0.275 0-0.5-0.225-0.5-0.5s0.225-0.5 0.5-0.5 0.5 0.225 0.5 0.5-0.225 0.5-0.5 0.5z"></path>
</symbol>
<symbol id="icon-banknote" viewBox="0 0 32 32">
<path d="M31.415 10.586l-10-10c-0.496-0.496-1.215-0.695-1.896-0.527-0.359 0.088-0.68 0.273-0.934 0.527-0.227 0.227-0.398 0.508-0.496 0.822-0.453 1.469-1.236 2.746-2.395 3.904-1.548 1.547-3.564 2.719-5.697 3.958-2.264 1.312-4.603 2.672-6.52 4.588-1.629 1.631-2.738 3.445-3.388 5.551-0.219 0.711-0.028 1.48 0.496 2.006l10 10c0.496 0.496 1.215 0.695 1.896 0.527 0.359-0.090 0.68-0.273 0.934-0.527 0.227-0.227 0.398-0.508 0.496-0.824 0.454-1.469 1.237-2.746 2.397-3.904 1.547-1.547 3.562-2.717 5.697-3.955 2.262-1.314 4.602-2.674 6.518-4.59 1.629-1.629 2.738-3.445 3.389-5.551 0.218-0.71 0.026-1.482-0.497-2.005zM12 30c-3.312-3.312-6.688-6.689-10-10 2.842-9.201 15.16-8.799 18-18 3.312 3.311 6.689 6.688 10.002 10-2.843 9.199-15.161 8.799-18.002 18zM19.562 14.9c-0.326-0.273-0.654-0.459-0.984-0.551-0.328-0.092-0.656-0.129-0.988-0.105-0.328 0.025-0.664 0.1-1 0.229-0.336 0.131-0.674 0.273-1.014 0.438-0.537-0.617-1.074-1.227-1.611-1.793 0.242-0.219 0.477-0.33 0.703-0.338 0.227-0.010 0.445 0.014 0.652 0.066 0.211 0.053 0.404 0.098 0.582 0.133 0.18 0.035 0.336-0.004 0.473-0.119 0.145-0.125 0.225-0.287 0.236-0.482 0.010-0.197-0.064-0.389-0.229-0.576-0.211-0.242-0.465-0.389-0.77-0.443-0.301-0.053-0.609-0.049-0.93 0.021-0.316 0.072-0.617 0.191-0.902 0.359s-0.514 0.34-0.684 0.508c-0.065-0.062-0.13-0.123-0.195-0.184-0.072-0.066-0.162-0.102-0.27-0.1-0.109 0-0.199 0.047-0.273 0.133-0.072 0.084-0.105 0.182-0.092 0.285 0.010 0.107 0.053 0.189 0.127 0.252 0.065 0.055 0.13 0.109 0.195 0.166-0.256 0.309-0.467 0.65-0.633 1.010-0.168 0.361-0.268 0.719-0.305 1.066-0.039 0.35-0.002 0.67 0.105 0.967 0.107 0.299 0.305 0.553 0.594 0.793 0.471 0.391 1.025 0.557 1.668 0.52 0.641-0.039 1.332-0.23 2.075-0.629 0.59 0.682 1.182 1.359 1.773 1.988-0.25 0.211-0.469 0.332-0.662 0.371-0.193 0.041-0.365 0.037-0.521-0.010-0.156-0.049-0.301-0.119-0.434-0.209-0.133-0.092-0.264-0.17-0.395-0.234-0.129-0.064-0.262-0.1-0.398-0.102s-0.281 0.064-0.441 0.201c-0.164 0.143-0.246 0.309-0.246 0.496s0.086 0.375 0.254 0.566c0.17 0.191 0.391 0.352 0.658 0.479s0.569 0.207 0.901 0.229c0.332 0.023 0.682-0.027 1.051-0.164 0.371-0.135 0.738-0.379 1.1-0.742 0.174 0.17 0.35 0.332 0.525 0.488 0.074 0.064 0.164 0.096 0.273 0.088 0.105-0.004 0.197-0.053 0.27-0.141 0.074-0.090 0.105-0.189 0.094-0.293-0.010-0.105-0.053-0.186-0.125-0.244-0.176-0.141-0.352-0.289-0.527-0.445 0.299-0.367 0.539-0.754 0.717-1.137 0.178-0.385 0.283-0.756 0.318-1.1 0.035-0.346-0.006-0.658-0.119-0.941-0.112-0.287-0.311-0.533-0.596-0.77zM13.971 15.578c-0.283 0.012-0.53-0.082-0.746-0.291-0.092-0.088-0.156-0.195-0.195-0.322-0.041-0.127-0.055-0.266-0.039-0.418 0.014-0.15 0.059-0.307 0.137-0.465 0.074-0.158 0.184-0.316 0.324-0.469 0.507 0.504 1.013 1.057 1.52 1.629-0.384 0.211-0.718 0.324-1.001 0.336zM18.688 17.58c-0.090 0.166-0.193 0.314-0.314 0.443-0.561-0.566-1.121-1.188-1.68-1.826 0.143-0.064 0.293-0.131 0.455-0.199s0.324-0.113 0.486-0.141c0.166-0.025 0.33-0.018 0.494 0.021 0.162 0.041 0.316 0.129 0.459 0.268 0.141 0.141 0.23 0.287 0.266 0.445 0.039 0.16 0.041 0.322 0.014 0.488-0.029 0.167-0.088 0.333-0.18 0.501zM14.717 22.18c0.197-0.159 0.487-0.151 0.668 0.033 0.196 0.195 0.196 0.514 0 0.709-0.016 0.016-0.033 0.027-0.051 0.041l0.002 0.002c-0.633 0.481-1.153 0.914-1.714 1.475-0.507 0.506-0.965 1.039-1.361 1.58l-0.639 0.875c-0.020 0.036-0.044 0.069-0.074 0.1-0.196 0.195-0.515 0.195-0.71 0-0.17-0.17-0.191-0.432-0.066-0.627l-0.002-0.002 0.684-0.934c0.427-0.584 0.918-1.156 1.461-1.699 0.565-0.567 1.175-1.073 1.8-1.553h0.002zM18.378 7.715c0.506-0.506 0.963-1.037 1.36-1.581l0.664-0.91c0.024-0.043 0.051-0.086 0.088-0.123 0.197-0.197 0.516-0.197 0.713 0 0.187 0.188 0.195 0.485 0.025 0.684l0.002 0.002-0.684 0.938c-0.428 0.584-0.918 1.154-1.461 1.697-0.565 0.565-1.174 1.073-1.799 1.553l-0.004-0.002c-0.199 0.183-0.508 0.179-0.699-0.014-0.197-0.197-0.197-0.518 0-0.715 0.035-0.037 0.076-0.063 0.117-0.086 0.588-0.449 1.155-0.92 1.678-1.443z"></path>
</symbol>
<symbol id="icon-megaphone" viewBox="0 0 32 32">
<path d="M25 0c-2.053 0-3.666 1.41-4.824 3.586l-0.021-0.012c-1.682 3.293-4.186 5.426-6.929 5.426h-9.226c-2.243 0-4 2.197-4 5 0 2.805 1.757 5 4 5 1.103 0.004 1.995 0.896 1.995 2v9c0 1.105 0.896 2 2 2h4c1.104 0 2-0.895 2-2v-1c0-1-1-1.447-1-2v-7c0-0.023 0.016-0.039 0.018-0.062 0.010-0.143 0.049-0.275 0.112-0.395 0.018-0.033 0.037-0.059 0.059-0.088 0.080-0.119 0.181-0.217 0.304-0.293 0.006-0.004 0.008-0.010 0.014-0.014 0.004 0 0.007-0.004 0.011-0.004 0.080-0.045 0.176-0.055 0.266-0.080 2.524 0.268 4.809 2.305 6.377 5.373l0.025-0.012c1.159 2.169 2.768 3.575 4.819 3.575 4.596 0 7-7.043 7-14s-2.404-14-7-14zM20 14c0-1.037 0.061-2.039 0.164-3h2.836c1.104 0 2 1.344 2 3 0 1.658-0.896 3-2 3h-2.836c-0.103-0.961-0.164-1.961-0.164-3zM2 14c0-1.656 0.896-3 2-3h7.014c-0.62 0.729-1.014 1.787-1.014 3 0 1.215 0.394 2.273 1.014 3h-7.014c-1.104 0-2-1.342-2-3zM11.995 30h-4v-9c0-0.729-0.195-1.41-0.537-2h0.698v0.012h3.008c-0.107 0.311-0.169 0.641-0.169 0.988v7c0 0.963 0.538 1.604 0.859 1.986 0.044 0.053 0.096 0.107 0.141 0.166v0.848zM13.226 17.012h-0.226v-0.012c-1.104 0-2-1.342-2-3 0-1.656 0.896-3 2-3h0.226c1.886 0 3.652-0.742 5.206-2.018-0.286 1.61-0.432 3.315-0.432 5.018 0 1.709 0.146 3.42 0.434 5.031-1.555-1.277-3.322-2.019-5.208-2.019zM25 26c-2.018 0-3.75-2.871-4.541-7h2.541c2.242 0 4-2.195 4-5 0-2.803-1.758-5-4-5h-2.541c0.791-4.127 2.523-7 4.541-7 2.762 0 5 5.373 5 12s-2.238 12-5 12z"></path>
</symbol>
<symbol id="icon-food" viewBox="0 0 32 32">
<path d="M29.5 21h-2.691c-0.045-0.239-0.1-0.473-0.16-0.706l4.799-2.399c0.494-0.247 0.693-0.848 0.447-1.342-0.248-0.494-0.846-0.692-1.342-0.447l-4.578 2.288c-1.746-3.768-5.555-6.394-9.975-6.394-5.382 0-9.865 3.888-10.809 9h-2.691c-1.378 0-2.5 1.121-2.5 2.5 0 0.49 0.18 0.963 0.505 1.329l3.495 3.932v0.739c0 1.379 1.122 2.5 2.5 2.5h19c1.379 0 2.5-1.121 2.5-2.5v-0.739l3.494-3.932c0.326-0.366 0.506-0.839 0.506-1.329 0-1.379-1.121-2.5-2.5-2.5zM25.799 21h-0.562l0.498-0.25c0.019 0.084 0.046 0.165 0.064 0.25zM16 13c4.029 0 7.5 2.4 9.082 5.841l-0.891 0.445c-1.416-3.115-4.546-5.286-8.191-5.286-4.282 0-7.859 2.993-8.77 7h-1.028c0.929-4.559 4.969-8 9.798-8zM20.576 21c-0.773-1.763-2.531-3-4.576-3s-3.802 1.237-4.576 3h-1.074c0.826-2.326 3.043-4 5.65-4 2.465 0 4.588 1.496 5.508 3.627l-0.932 0.373zM16 20c-0.883 0-1.67 0.391-2.22 1h-1.224c0.694-1.189 1.97-2 3.444-2 1.473 0 2.75 0.811 3.443 2h-1.225c-0.548-0.609-1.335-1-2.218-1zM16 16c-3.165 0-5.842 2.112-6.705 5h-1.032c0.892-3.444 4.017-6 7.737-6 3.246 0 6.043 1.948 7.295 4.734l-0.893 0.446c-1.088-2.457-3.547-4.18-6.402-4.18zM26 28v1.5c0 0.276-0.225 0.5-0.5 0.5h-19c-0.276 0-0.5-0.224-0.5-0.5v-1.5l-4-4.5c0-0.276 0.224-0.5 0.5-0.5h27c0.275 0 0.5 0.224 0.5 0.5l-4 4.5zM7.977 11.712c-0.007-0.014-0.012-0.027-0.018-0.042-0.519-1.253-0.003-2.482 0.463-3.591 0.441-1.052 0.832-1.984 0.428-2.893-0.002-0.004-0.003-0.008-0.005-0.012-0.001-0.003-0.002-0.006-0.003-0.009-0.001-0.002-0.001-0.004-0.001-0.006-0.020-0.053-0.032-0.109-0.032-0.169 0-0.27 0.219-0.49 0.49-0.49 0.208 0 0.385 0.13 0.456 0.313 0.558 1.271 0.051 2.521-0.422 3.647-0.438 1.042-0.794 2.010-0.419 2.892 0.002 0.007 0.002 0.013 0 0.020 0.011 0.040 0.018 0.082 0.018 0.125 0 0.277-0.225 0.503-0.502 0.503-0.194 0-0.36-0.11-0.443-0.27-0.001 0-0.002 0-0.002 0-0.003-0.006-0.005-0.012-0.008-0.018zM20.154 11.566c-0.006-0.013-0.011-0.027-0.016-0.040-0.519-1.253-0.004-2.483 0.461-3.592 0.442-1.052 0.832-1.984 0.428-2.893 0-0.004-0.002-0.008-0.004-0.012s-0.002-0.006-0.004-0.009c0-0.002 0-0.004 0-0.006-0.019-0.053-0.033-0.109-0.033-0.169 0-0.27 0.22-0.49 0.49-0.49 0.209 0 0.385 0.129 0.457 0.313 0.558 1.271 0.051 2.521-0.422 3.647-0.438 1.042-0.793 2.010-0.42 2.892 0.004 0.007 0.004 0.013 0.002 0.020 0.010 0.040 0.018 0.082 0.018 0.125 0 0.277-0.227 0.503-0.504 0.503-0.193 0-0.359-0.111-0.443-0.271h-0.002c-0.002-0.006-0.004-0.012-0.008-0.018zM15.019 7.212c-0.007-0.014-0.012-0.027-0.019-0.041-0.52-1.253-0.004-2.483 0.462-3.592 0.441-1.052 0.832-1.984 0.428-2.893-0.001-0.004-0.003-0.008-0.004-0.012-0.001-0.003-0.002-0.006-0.003-0.009-0.001-0.002-0.001-0.004-0.001-0.006-0.020-0.053-0.032-0.109-0.032-0.169 0-0.27 0.22-0.49 0.49-0.49 0.209 0 0.385 0.13 0.457 0.314 0.558 1.271 0.051 2.521-0.422 3.647-0.438 1.042-0.794 2.010-0.419 2.892 0.002 0.007 0.002 0.013 0 0.020 0.011 0.040 0.018 0.082 0.018 0.125 0 0.277-0.225 0.503-0.502 0.503-0.193 0-0.359-0.111-0.443-0.271-0.001 0-0.002 0-0.002 0-0.003-0.006-0.005-0.012-0.008-0.018z"></path>
</symbol>
<symbol id="icon-wallet" viewBox="0 0 32 32">
<path d="M16 20c0-1.105 0.895-2 2-2s2 0.895 2 2c0 1.105-0.895 2-2 2s-2-0.895-2-2zM29.001 13c-0.001 0-0.001 0 0 0l-0.001-6v-3c0-1.657-1.344-3-3-3h-20.5c-3.033 0-5.5 2.468-5.5 5.5v20c0 3.032 2.467 5.5 5.5 5.5h18c3.032 0 5.5-2.468 5.5-5.5v-1.5c0 0 0 0 0.001 0 3.998-3.001 3.998-8.999 0-12zM5.5 3h20.5c0.551 0 1 0.448 1 1v6.184c-0.314-0.112-0.648-0.184-1-0.184h-0.001v-5c0-0.553-0.448-1-1-1h-21c-0.552 0-1 0.447-1 1v3.943c-0.617-0.631-0.999-1.491-0.999-2.443 0-1.933 1.566-3.5 3.5-3.5zM24.999 6h-21v-1h21v1zM24.999 7v1h-21v-1h21zM24.999 9v1h-19.499c-0.54 0-1.044-0.132-1.5-0.35v-0.65h20.999zM27 26.5c0 1.933-1.567 3.5-3.5 3.5h-18c-1.934 0-3.5-1.567-3.5-3.5v-15.761c0.951 0.787 2.171 1.261 3.5 1.261h20.5c0.551 0 1 0.448 1 1v2h-9c-2.762 0-5 2.238-5 5s2.239 5 5 5h9v1.5zM28.277 23h-10.277c-1.654 0-3-1.346-3-3s1.346-3 3-3h9c0.617-0.008 1.229-0.307 1.602-0.804 0.104-0.14 0.185-0.297 0.25-0.461 0.009-0.022 0.025-0.039 0.033-0.062 0.719 0.943 1.115 2.099 1.115 3.327 0 1.538-0.621 2.965-1.723 4z"></path>
</symbol>
<symbol id="icon-truck" viewBox="0 0 32 32">
<path d="M24.832 11.445c-0.186-0.278-0.498-0.445-0.832-0.445h-1c-0.553 0-1 0.447-1 1v6c0 0.553 0.447 1 1 1h4c0.553 0 1-0.447 1-1v-1.5c0-0.197-0.059-0.391-0.168-0.555l-3-4.5zM27 18h-4v-6h1l3 4.5v1.5zM31.496 15.336l-4-6c-0.558-0.837-1.492-1.336-2.496-1.336h-4v-2c0-1.654-1.346-3-3-3h-15c-1.654 0-3 1.346-3 3v11c0 1.654 1.346 3 3 3v0 3c0 1.654 1.346 3 3 3h1.142c0.447 1.721 2 3 3.859 3 1.857 0 3.41-1.279 3.857-3h5.282c0.447 1.721 2 3 3.859 3 1.857 0 3.41-1.279 3.857-3h1.144c1.654 0 3-1.346 3-3v-6c0-0.594-0.174-1.17-0.504-1.664zM3 18c-0.552 0-1-0.447-1-1v-11c0-0.553 0.448-1 1-1h15c0.553 0 1 0.447 1 1v11c0 0.553-0.447 1-1 1h-15zM11.001 27c-1.105 0-2-0.896-2-2s0.895-2 2-2c1.104 0 2 0.896 2 2s-0.897 2-2 2zM24 27c-1.105 0-2-0.896-2-2s0.895-2 2-2c1.104 0 2 0.896 2 2s-0.896 2-2 2zM30 23c0 0.553-0.447 1-1 1h-1.143c-0.447-1.721-2-3-3.857-3-1.859 0-3.412 1.279-3.859 3h-5.282c-0.447-1.721-2-3-3.857-3-1.859 0-3.412 1.279-3.859 3h-1.143c-0.552 0-1-0.447-1-1v-3h13c1.654 0 3-1.346 3-3v-7h4c0.334 0 0.646 0.167 0.832 0.445l4 6c0.109 0.164 0.168 0.358 0.168 0.555v6z"></path>
</symbol>
<symbol id="icon-world" viewBox="0 0 32 32">
<path d="M15.5 0c-8.561 0-15.5 6.939-15.5 15.5s6.939 15.5 15.5 15.5 15.5-6.939 15.5-15.5-6.939-15.5-15.5-15.5zM28.975 15h-5.996c-0.055-2.215-0.449-4.331-1.148-6.268 1.35-0.563 2.598-1.312 3.736-2.197 2.023 2.271 3.288 5.22 3.408 8.465zM14.947 28.972c-1.662-1.384-3.056-3.181-4.076-5.268 1.309-0.409 2.696-0.633 4.129-0.679v5.949c-0.018 0-0.035-0.001-0.053-0.002zM16.051 2.028c1.886 1.57 3.425 3.673 4.466 6.126-1.426 0.487-2.941 0.77-4.518 0.82v-6.949c0.019 0.001 0.035 0.002 0.052 0.003zM17.717 2.198c2.76 0.459 5.236 1.748 7.164 3.614-1.047 0.803-2.191 1.483-3.428 1.998-0.91-2.157-2.187-4.064-3.736-5.612zM15 2.025v6.949c-1.577-0.051-3.093-0.333-4.518-0.82 1.041-2.453 2.58-4.556 4.466-6.126 0.018-0.001 0.034-0.002 0.052-0.003zM9.546 7.811c-1.235-0.515-2.38-1.195-3.427-1.998 1.927-1.866 4.404-3.155 7.164-3.614-1.55 1.547-2.826 3.454-3.737 5.612zM10.105 9.076c1.542 0.535 3.185 0.847 4.895 0.899v5.025h-5.979c0.054-2.094 0.425-4.095 1.084-5.924zM15 16v6.025c-1.577 0.048-3.102 0.306-4.539 0.769-0.866-2.062-1.377-4.359-1.44-6.794h5.979zM13.283 28.802c-2.473-0.411-4.719-1.488-6.545-3.052 0.985-0.683 2.050-1.261 3.188-1.7 0.872 1.808 2.013 3.413 3.357 4.752zM16 28.975v-5.949c1.432 0.046 2.82 0.27 4.129 0.679-1.021 2.087-2.414 3.884-4.076 5.268-0.017 0-0.035 0.001-0.053 0.002zM21.074 24.050c1.137 0.439 2.201 1.018 3.188 1.7-1.826 1.563-4.072 2.641-6.545 3.052 1.344-1.339 2.484-2.944 3.357-4.752zM20.539 22.794c-1.438-0.463-2.963-0.721-4.539-0.769v-6.025h5.979c-0.063 2.435-0.575 4.732-1.44 6.794zM16 15v-5.025c1.709-0.052 3.352-0.363 4.895-0.898 0.658 1.829 1.029 3.83 1.084 5.924h-5.979zM5.434 6.535c1.138 0.885 2.386 1.634 3.735 2.197-0.699 1.937-1.093 4.053-1.148 6.268h-5.996c0.12-3.245 1.385-6.194 3.409-8.465zM2.025 16h5.996c0.062 2.555 0.596 4.968 1.503 7.137-1.267 0.494-2.448 1.152-3.538 1.931-2.348-2.337-3.83-5.532-3.961-9.068zM25.014 25.067c-1.090-0.778-2.271-1.437-3.539-1.931 0.908-2.169 1.441-4.582 1.504-7.137h5.996c-0.131 3.537-1.614 6.732-3.961 9.068z"></path>
</symbol>
<symbol id="icon-bookmark" viewBox="0 0 20 20">
<path d="M14 2v17l-4-4-4 4v-17c0-0.553 0.585-1.020 1-1h6c0.689-0.020 1 0.447 1 1z"></path>
</symbol>
<symbol id="icon-chevron-small-left" viewBox="0 0 20 20">
<path d="M12.141 13.418c0.268 0.271 0.268 0.709 0 0.978s-0.701 0.272-0.969 0l-3.83-3.908c-0.268-0.27-0.268-0.707 0-0.979l3.83-3.908c0.267-0.27 0.701-0.27 0.969 0s0.268 0.709 0 0.978l-3.141 3.421 3.141 3.418z"></path>
</symbol>
<symbol id="icon-chevron-small-right" viewBox="0 0 20 20">
<path d="M11 10l-3.141-3.42c-0.268-0.27-0.268-0.707 0-0.978 0.268-0.27 0.701-0.27 0.969 0l3.83 3.908c0.268 0.271 0.268 0.709 0 0.979l-3.83 3.908c-0.267 0.272-0.701 0.27-0.969 0s-0.268-0.707 0-0.978l3.141-3.419z"></path>
</symbol>
<symbol id="icon-chevron-thin-left" viewBox="0 0 20 20">
<path d="M13.891 17.418c0.268 0.272 0.268 0.709 0 0.979s-0.701 0.271-0.969 0l-7.83-7.908c-0.268-0.27-0.268-0.707 0-0.979l7.83-7.908c0.268-0.27 0.701-0.27 0.969 0s0.268 0.709 0 0.979l-7.141 7.419 7.141 7.418z"></path>
</symbol>
<symbol id="icon-chevron-thin-right" viewBox="0 0 20 20">
<path d="M13.25 10l-7.141-7.42c-0.268-0.27-0.268-0.707 0-0.979 0.268-0.27 0.701-0.27 0.969 0l7.83 7.908c0.268 0.271 0.268 0.709 0 0.979l-7.83 7.908c-0.268 0.271-0.701 0.27-0.969 0s-0.268-0.707 0-0.979l7.141-7.417z"></path>
</symbol>
<symbol id="icon-bell" viewBox="0 0 20 20">
<path d="M14.65 8.512c-2.28-4.907-3.466-6.771-7.191-6.693-1.327 0.027-1.009-0.962-2.021-0.587-1.010 0.375-0.143 0.924-1.177 1.773-2.902 2.383-2.635 4.587-1.289 9.84 0.567 2.213-1.367 2.321-0.602 4.465 0.559 1.564 4.679 2.219 9.025 0.607s7.086-4.814 6.527-6.378c-0.765-2.145-2.311-0.961-3.272-3.027zM10.924 16.595c-3.882 1.44-7.072 0.594-7.207 0.217-0.232-0.65 1.253-2.816 5.691-4.463s6.915-1.036 7.174-0.311c0.153 0.429-1.775 3.116-5.658 4.557zM9.676 13.101c-2.029 0.753-3.439 1.614-4.353 2.389 0.643 0.584 1.847 0.726 3.046 0.281 1.527-0.565 2.466-1.866 2.095-2.904-0.005-0.013-0.011-0.023-0.016-0.036-0.251 0.082-0.508 0.171-0.772 0.27z"></path>
</symbol>
<symbol id="icon-credit" viewBox="0 0 20 20">
<path d="M11 16.755v2.245h-2v-2.143c-1.712-0.1-3.066-0.589-4.241-1.797l1.718-1.74c0.859 0.87 2.023 1.16 3.282 1.16 1.565 0 2.405-0.599 2.405-1.702 0-0.483-0.133-0.889-0.42-1.16-0.267-0.251-0.572-0.387-1.202-0.483l-1.642-0.232c-1.164-0.174-2.022-0.541-2.634-1.141-0.648-0.657-0.973-1.546-0.973-2.707 0-2.155 1.382-3.743 3.707-4.1v-1.955h2v1.932c1.382 0.145 2.465 0.62 3.415 1.551l-1.679 1.682c-0.859-0.832-1.889-0.947-2.787-0.947-1.412 0-2.099 0.792-2.099 1.74 0 0.348 0.115 0.716 0.401 0.986 0.267 0.252 0.706 0.464 1.26 0.541l1.602 0.232c1.241 0.174 2.023 0.522 2.596 1.063 0.726 0.696 1.050 1.702 1.050 2.92 0 2.25-1.567 3.662-3.759 4.055z"></path>
</symbol>
<symbol id="icon-cross" viewBox="0 0 20 20">
<path d="M14.348 14.849c-0.469 0.469-1.229 0.469-1.697 0l-2.651-3.030-2.651 3.029c-0.469 0.469-1.229 0.469-1.697 0-0.469-0.469-0.469-1.229 0-1.697l2.758-3.15-2.759-3.152c-0.469-0.469-0.469-1.228 0-1.697s1.228-0.469 1.697 0l2.652 3.031 2.651-3.031c0.469-0.469 1.228-0.469 1.697 0s0.469 1.229 0 1.697l-2.758 3.152 2.758 3.15c0.469 0.469 0.469 1.229 0 1.698z"></path>
</symbol>
<symbol id="icon-globe" viewBox="0 0 20 20">
<path d="M10 0.4c-5.295 0-9.601 4.307-9.601 9.6s4.306 9.6 9.601 9.6c5.293 0 9.6-4.307 9.6-9.6s-4.307-9.6-9.6-9.6zM18.188 10c0 1.873-0.636 3.6-1.696 4.98-0.3-0.234-0.619-0.867-0.319-1.523 0.303-0.66 0.382-2.188 0.312-2.783-0.066-0.594-0.375-2.025-1.214-2.039-0.838-0.012-1.413-0.289-1.911-1.283-1.033-2.068 1.939-2.465 0.906-3.609-0.289-0.322-1.783 1.322-2.002-0.869-0.014-0.157 0.135-0.392 0.336-0.636 3.244 1.090 5.588 4.157 5.588 7.762zM8.875 1.893c-0.196 0.382-0.713 0.537-1.027 0.824-0.684 0.619-0.978 0.533-1.346 1.127-0.371 0.594-1.567 1.449-1.567 1.879s0.604 0.936 0.906 0.838c0.302-0.1 1.099-0.094 1.567 0.070 0.469 0.166 3.914 0.332 2.816 3.244-0.348 0.926-1.873 0.77-2.279 2.303-0.061 0.225-0.272 1.186-0.285 1.5-0.025 0.486 0.344 2.318-0.125 2.318-0.471 0-1.738-1.639-1.738-1.936s-0.328-1.338-0.328-2.23c0-0.891-1.518-0.877-1.518-2.062 0-1.068 0.823-1.6 0.638-2.113-0.181-0.51-1.627-0.527-2.23-0.59 1.053-2.731 3.53-4.758 6.516-5.172zM7.424 17.77c0.492-0.26 0.542-0.596 0.988-0.613 0.51-0.023 0.925-0.199 1.5-0.326 0.51-0.111 1.423-0.629 2.226-0.695 0.678-0.055 2.015 0.035 2.375 0.689-1.295 0.861-2.848 1.363-4.514 1.363-0.899 0-1.765-0.149-2.575-0.418z"></path>
</symbol>
<symbol id="icon-heart1" viewBox="0 0 20 20">
<path d="M17.19 4.155c-1.672-1.534-4.383-1.534-6.055 0l-1.135 1.042-1.136-1.042c-1.672-1.534-4.382-1.534-6.054 0-1.881 1.727-1.881 4.52 0 6.246l7.19 6.599 7.19-6.599c1.88-1.726 1.88-4.52 0-6.246z"></path>
</symbol>
<symbol id="icon-location-pin" viewBox="0 0 20 20">
<path d="M10 2.009c-2.762 0-5 2.229-5 4.99 0 4.774 5 11 5 11s5-6.227 5-11c0-2.76-2.238-4.99-5-4.99zM10 9.76c-1.492 0-2.7-1.209-2.7-2.7s1.208-2.7 2.7-2.7c1.49 0 2.699 1.209 2.699 2.7s-1.209 2.7-2.699 2.7z"></path>
</symbol>
<symbol id="icon-mail1" viewBox="0 0 20 20">
<path d="M1.574 5.286c0.488 0.262 7.248 3.894 7.5 4.029s0.578 0.199 0.906 0.199c0.328 0 0.654-0.064 0.906-0.199s7.012-3.767 7.5-4.029c0.489-0.263 0.951-1.286 0.054-1.286h-16.919c-0.897 0-0.435 1.023 0.053 1.286zM18.613 7.489c-0.555 0.289-7.387 3.849-7.727 4.027s-0.578 0.199-0.906 0.199-0.566-0.021-0.906-0.199-7.133-3.739-7.688-4.028c-0.39-0.204-0.386 0.035-0.386 0.219s0 7.293 0 7.293c0 0.42 0.566 1 1 1h16c0.434 0 1-0.58 1-1 0 0 0-7.108 0-7.292s0.004-0.423-0.387-0.219z"></path>
</symbol>
<symbol id="icon-old-phone" viewBox="0 0 20 20">
<path d="M17.256 12.253c-0.096-0.667-0.611-1.187-1.274-1.342-2.577-0.604-3.223-2.088-3.332-3.734-0.457-0.085-1.27-0.177-2.65-0.177s-2.193 0.092-2.65 0.177c-0.109 1.646-0.755 3.13-3.332 3.734-0.663 0.156-1.178 0.675-1.274 1.342l-0.497 3.442c-0.175 1.212 0.715 2.305 1.953 2.305h11.6c1.237 0 2.128-1.093 1.953-2.305l-0.497-3.442zM10 15.492c-1.395 0-2.526-1.12-2.526-2.5s1.131-2.5 2.526-2.5 2.526 1.12 2.526 2.5-1.132 2.5-2.526 2.5zM19.95 6c-0.024-1.5-3.842-3.999-9.95-4-6.109 0.001-9.927 2.5-9.95 4s0.021 3.452 2.535 3.127c2.941-0.381 2.76-1.408 2.76-2.876 0-1.024 2.392-1.271 4.655-1.271s4.654 0.247 4.655 1.271c0 1.468-0.181 2.495 2.76 2.876 2.513 0.325 2.558-1.627 2.535-3.127z"></path>
</symbol>
<symbol id="icon-price-tag" viewBox="0 0 20 20">
<path d="M19.388 0.405c-0.111-0.314-0.454-0.48-0.769-0.371s-0.481 0.455-0.372 0.77c0.929 2.67-0.915 4.664-2.321 5.732l-0.568-0.814c-0.191-0.273-0.618-0.5-0.95-0.504l-3.188 0.014c-0.332-0.006-0.825 0.146-1.097 0.338l-9.394 6.587c-0.455 0.32-0.565 0.947-0.247 1.404l4.269 6.108c0.32 0.455 0.831 0.4 1.287 0.082l9.394-6.588c0.27-0.191 0.582-0.603 0.692-0.918l0.998-3.145c0.11-0.314 0.043-0.793-0.148-1.066l-0.346-0.496c1.888-1.447 3.848-4.004 2.76-7.133zM15.017 9.763c-0.727 0.51-1.731 0.332-2.24-0.396-0.511-0.73-0.333-1.734 0.395-2.246 0.578-0.405 1.328-0.376 1.868 0.017-0.272 0.164-0.459 0.26-0.494 0.275-0.301 0.143-0.43 0.504-0.288 0.805 0.104 0.219 0.321 0.348 0.547 0.348 0.086 0 0.174-0.020 0.257-0.059 0.194-0.092 0.402-0.201 0.619-0.33 0.097 0.594-0.139 1.217-0.664 1.586z"></path>
</symbol>
<symbol id="icon-shield" viewBox="0 0 20 20">
<path d="M17.604 3.332c-4.614 0.668-5.529-0.499-7.604-2.332-2.075 1.833-2.99 3-7.604 2.332-2.459 12.248 7.604 15.668 7.604 15.668s10.063-3.42 7.604-15.668zM12.473 13.309l-2.473-1.3-2.472 1.3 0.472-2.753-2-1.95 2.764-0.401 1.236-2.505 1.236 2.505 2.764 0.401-2 1.949 0.473 2.754z"></path>
</symbol>
<symbol id="icon-shopping-basket" viewBox="0 0 20 20">
<path d="M18.399 7h-5.007l-1.812 1.812c-0.453 0.453-1.056 0.702-1.696 0.702-0.642 0-1.244-0.25-1.698-0.703-0.452-0.452-0.702-1.054-0.703-1.695 0-0.039 0.010-0.077 0.011-0.116h-5.894c-0.332 0-0.6 0.268-0.6 0.6v2.4h18v-2.4c0-0.332-0.27-0.6-0.601-0.6zM10.768 7.999l5.055-5.055c0.235-0.234 0.237-0.613 0.002-0.849l-0.92-0.92c-0.234-0.234-0.614-0.233-0.85 0l-5.055 5.056c-0.488 0.488-0.488 1.28 0 1.768 0.488 0.487 1.279 0.488 1.768 0zM3.823 17.271c0.097 0.401 0.515 0.729 0.927 0.729h10.5c0.412 0 0.83-0.328 0.927-0.729l1.523-6.271h-15.4l1.523 6.271z"></path>
</symbol>
<symbol id="icon-shopping-cart" viewBox="0 0 20 20">
<path d="M13 17c0 1.104 0.894 2 2 2 1.104 0 2-0.896 2-2 0-1.106-0.896-2-2-2-1.106 0-2 0.894-2 2zM3 17c0 1.104 0.895 2 2 2 1.103 0 2-0.896 2-2 0-1.106-0.897-2-2-2-1.105 0-2 0.894-2 2zM6.547 12.172l11.068-3.162c0.211-0.061 0.385-0.289 0.385-0.51v-5.5h-14v-1.6c0-0.22-0.181-0.4-0.399-0.4h-3.202c-0.219 0-0.399 0.18-0.399 0.4v1.6h2l1.91 8.957 0.090 0.943v1.649c0 0.219 0.18 0.4 0.4 0.4h13.2c0.22 0 0.4-0.182 0.4-0.4v-1.549h-11.248c-1.15 0-1.174-0.551-0.205-0.828z"></path>
</symbol>
<symbol id="icon-star-outlined" viewBox="0 0 20 20">
<path d="M18.8 8.022h-6.413l-2.387-6.722-2.389 6.722h-6.412l5.232 3.947-1.871 6.929 5.44-4.154 5.438 4.154-1.869-6.929 5.231-3.947zM10 12.783l-3.014 2.5 1.243-3.562-2.851-2.3 3.522 0.101 1.1-4.040 1.099 4.040 3.521-0.101-2.851 2.3 1.243 3.562-3.012-2.5z"></path>
</symbol>
<symbol id="icon-star1" viewBox="0 0 20 20">
<path d="M10 1.3l2.388 6.722h6.412l-5.232 3.948 1.871 6.928-5.439-4.154-5.438 4.154 1.87-6.928-5.233-3.948h6.412l2.389-6.722z"></path>
</symbol>
<symbol id="icon-stopwatch" viewBox="0 0 20 20">
<path d="M7.376 6.745c-0.447 0.275 1.197 4.242 1.598 4.888 0.35 0.569 1.093 0.742 1.658 0.394 0.568-0.352 0.745-1.094 0.395-1.66-0.397-0.648-3.205-3.898-3.651-3.622zM7.041 2.402c0.928-0.323 1.922-0.502 2.959-0.502s2.031 0.179 2.959 0.502c0.329 0.114 0.765-0.115 0.572-0.611-0.141-0.36-0.277-0.712-0.332-0.855-0.131-0.339-0.6-0.619-0.804-0.665-0.772-0.174-1.572-0.271-2.395-0.271s-1.623 0.097-2.396 0.271c-0.204 0.046-0.672 0.326-0.803 0.665-0.055 0.143-0.192 0.495-0.332 0.855-0.193 0.496 0.243 0.726 0.572 0.611zM19.098 3.186c-0.192-0.23-0.396-0.455-0.613-0.672-0.216-0.217-0.441-0.42-0.67-0.613-0.153-0.129-0.603-0.234-0.888 0.051s-1.648 1.647-1.648 1.647c0.402 0.288 0.793 0.605 1.155 0.966s0.677 0.752 0.966 1.155c0 0 1.363-1.362 1.647-1.647 0.286-0.286 0.181-0.735 0.051-0.887zM10 2.9c-4.475 0-8.101 3.626-8.101 8.1s3.626 8.101 8.101 8.101c4.473 0 8.1-3.626 8.1-8.101 0-4.473-3.627-8.1-8.1-8.1zM10 17.101c-3.368 0-6.1-2.731-6.1-6.1s2.731-6.1 6.1-6.1c3.369 0 6.101 2.731 6.101 6.1s-2.732 6.1-6.101 6.1z"></path>
</symbol>
<symbol id="icon-user" viewBox="0 0 20 20">
<path d="M7.725 2.146c-1.016 0.756-1.289 1.953-1.239 2.59 0.064 0.779 0.222 1.793 0.222 1.793s-0.313 0.17-0.313 0.854c0.109 1.717 0.683 0.976 0.801 1.729 0.284 1.814 0.933 1.491 0.933 2.481 0 1.649-0.68 2.42-2.803 3.334-2.13 0.918-4.326 2.073-4.326 4.073v1h18v-1c0-2-2.197-3.155-4.328-4.072-2.123-0.914-2.801-1.684-2.801-3.334 0-0.99 0.647-0.667 0.932-2.481 0.119-0.753 0.692-0.012 0.803-1.729 0-0.684-0.314-0.854-0.314-0.854s0.158-1.014 0.221-1.793c0.065-0.817-0.398-2.561-2.3-3.096-0.333-0.34-0.558-0.881 0.466-1.424-2.24-0.105-2.761 1.067-3.954 1.929z"></path>
</symbol>
<symbol id="icon-facebook-with-circle" viewBox="0 0 20 20">
<path d="M10 0.4c-5.302 0-9.6 4.298-9.6 9.6s4.298 9.6 9.6 9.6 9.6-4.298 9.6-9.6-4.298-9.6-9.6-9.6zM12.274 7.034h-1.443c-0.171 0-0.361 0.225-0.361 0.524v1.042h1.805l-0.273 1.486h-1.532v4.461h-1.703v-4.461h-1.545v-1.486h1.545v-0.874c0-1.254 0.87-2.273 2.064-2.273h1.443v1.581z"></path>
</symbol>
<symbol id="icon-instagram-with-circle" viewBox="0 0 20 20">
<path d="M13 10c0 1.657-1.343 3-3 3s-3-1.343-3-3c0-0.171 0.018-0.338 0.049-0.5h-1.049v3.997c0 0.278 0.225 0.503 0.503 0.503h6.995c0.277 0 0.502-0.225 0.502-0.503v-3.997h-1.049c0.031 0.162 0.049 0.329 0.049 0.5zM10 12c1.104 0 2-0.896 2-2s-0.896-2-2-2-2 0.896-2 2 0.896 2 2 2zM12.4 7.9h1.199c0.166 0 0.301-0.135 0.301-0.3v-1.199c0-0.166-0.135-0.301-0.301-0.301h-1.199c-0.166 0-0.301 0.135-0.301 0.301v1.199c0.001 0.165 0.136 0.3 0.301 0.3zM10 0.4c-5.302 0-9.6 4.298-9.6 9.6s4.298 9.6 9.6 9.6c5.302 0 9.6-4.298 9.6-9.6s-4.298-9.6-9.6-9.6zM15 13.889c0 0.611-0.5 1.111-1.111 1.111h-7.778c-0.611 0-1.111-0.5-1.111-1.111v-7.778c0-0.611 0.5-1.111 1.111-1.111h7.778c0.611 0 1.111 0.5 1.111 1.111v7.778z"></path>
</symbol>
<symbol id="icon-linkedin-with-circle" viewBox="0 0 20 20">
<path d="M10 0.4c-5.302 0-9.6 4.298-9.6 9.6s4.298 9.6 9.6 9.6 9.6-4.298 9.6-9.6-4.298-9.6-9.6-9.6zM7.65 13.979h-1.944v-6.256h1.944v6.256zM6.666 6.955c-0.614 0-1.011-0.435-1.011-0.973 0-0.549 0.409-0.971 1.036-0.971s1.011 0.422 1.023 0.971c0 0.538-0.396 0.973-1.048 0.973zM14.75 13.979h-1.944v-3.467c0-0.807-0.282-1.355-0.985-1.355-0.537 0-0.856 0.371-0.997 0.728-0.052 0.127-0.065 0.307-0.065 0.486v3.607h-1.945v-4.26c0-0.781-0.025-1.434-0.051-1.996h1.689l0.089 0.869h0.039c0.256-0.408 0.883-1.010 1.932-1.010 1.279 0 2.238 0.857 2.238 2.699v3.699z"></path>
</symbol>
<symbol id="icon-tumblr-with-circle" viewBox="0 0 20 20">
<path d="M10 0.4c-5.302 0-9.6 4.298-9.6 9.6s4.298 9.6 9.6 9.6 9.6-4.298 9.6-9.6-4.298-9.6-9.6-9.6zM12.577 14.141c-0.393 0.188-0.748 0.318-1.066 0.395-0.318 0.074-0.662 0.113-1.031 0.113-0.42 0-0.791-0.055-1.114-0.162s-0.598-0.26-0.826-0.459c-0.228-0.197-0.386-0.41-0.474-0.633-0.088-0.225-0.132-0.549-0.132-0.973v-3.262h-1.016v-1.314c0.359-0.119 0.67-0.289 0.927-0.512 0.257-0.221 0.464-0.486 0.619-0.797s0.263-0.707 0.322-1.185h1.307v2.35h2.18v1.458h-2.18v2.385c0 0.539 0.028 0.885 0.085 1.037 0.056 0.154 0.161 0.275 0.315 0.367 0.204 0.123 0.437 0.185 0.697 0.185 0.466 0 0.928-0.154 1.388-0.461v1.468z"></path>
</symbol>
<symbol id="icon-youtube-with-circle" viewBox="0 0 20 20">
<path d="M11.603 9.833l-2.246-1.048c-0.196-0.091-0.357 0.011-0.357 0.228v1.974c0 0.217 0.161 0.319 0.357 0.228l2.245-1.048c0.197-0.092 0.197-0.242 0.001-0.334zM10 0.4c-5.302 0-9.6 4.298-9.6 9.6s4.298 9.6 9.6 9.6 9.6-4.298 9.6-9.6-4.298-9.6-9.6-9.6zM10 13.9c-4.914 0-5-0.443-5-3.9s0.086-3.9 5-3.9 5 0.443 5 3.9-0.086 3.9-5 3.9z"></path>
</symbol>
</defs>
</svg>
